<svg id="visual" viewBox="0 0 900 600" width="900" height="600" xmlns="http://www.w3.org/2000/svg" xmlns:xlink="http://www.w3.org/1999/xlink" version="1.1"><path d="M298 0L310.2 12.5C322.3 25 346.7 50 333.8 75C321 100 271 125 237.2 150C203.3 175 185.7 200 205.5 225C225.3 250 282.7 275 308.5 300C334.3 325 328.7 350 311.3 375C294 400 265 425 252.7 450C240.3 475 244.7 500 239.7 525C234.7 550 220.3 575 213.2 587.5L206 600L0 600L0 587.5C0 575 0 550 0 525C0 500 0 475 0 450C0 425 0 400 0 375C0 350 0 325 0 300C0 275 0 250 0 225C0 200 0 175 0 150C0 125 0 100 0 75C0 50 0 25 0 12.5L0 0Z" fill="#9157e7"></path><path d="M242 0L257.7 12.5C273.3 25 304.7 50 320.3 75C336 100 336 125 338.5 150C341 175 346 200 332.7 225C319.3 250 287.7 275 267.3 300C247 325 238 350 251.8 375C265.7 400 302.3 425 296.8 450C291.3 475 243.7 500 226.3 525C209 550 222 575 228.5 587.5L235 600L0 600L0 587.5C0 575 0 550 0 525C0 500 0 475 0 450C0 425 0 400 0 375C0 350 0 325 0 300C0 275 0 250 0 225C0 200 0 175 0 150C0 125 0 100 0 75C0 50 0 25 0 12.5L0 0Z" fill="#7048c4"></path><path d="M212 0L205.2 12.5C198.3 25 184.7 50 189 75C193.3 100 215.7 125 230.8 150C246 175 254 200 255.7 225C257.3 250 252.7 275 226 300C199.3 325 150.7 350 139.7 375C128.7 400 155.3 425 181.2 450C207 475 232 500 230 525C228 550 199 575 184.5 587.5L170 600L0 600L0 587.5C0 575 0 550 0 525C0 500 0 475 0 450C0 425 0 400 0 375C0 350 0 325 0 300C0 275 0 250 0 225C0 200 0 175 0 150C0 125 0 100 0 75C0 50 0 25 0 12.5L0 0Z" fill="#5139a0"></path><path d="M169 0L164.5 12.5C160 25 151 50 149.3 75C147.7 100 153.3 125 140.7 150C128 175 97 200 87 225C77 250 88 275 99.3 300C110.7 325 122.3 350 117 375C111.7 400 89.3 425 82.7 450C76 475 85 500 93.2 525C101.3 550 108.7 575 112.3 587.5L116 600L0 600L0 587.5C0 575 0 550 0 525C0 500 0 475 0 450C0 425 0 400 0 375C0 350 0 325 0 300C0 275 0 250 0 225C0 200 0 175 0 150C0 125 0 100 0 75C0 50 0 25 0 12.5L0 0Z" fill="#352a7e"></path></svg>