<svg id="visual" viewBox="0 0 580 250" width="580" height="250" xmlns="http://www.w3.org/2000/svg" xmlns:xlink="http://www.w3.org/1999/xlink" version="1.1"><path d="M330 0L344.7 8.3C359.3 16.7 388.7 33.3 381.7 50C374.7 66.7 331.3 83.3 329 100C326.7 116.7 365.3 133.3 379 150C392.7 166.7 381.3 183.3 368.5 200C355.7 216.7 341.3 233.3 334.2 241.7L327 250L0 250L0 241.7C0 233.3 0 216.7 0 200C0 183.3 0 166.7 0 150C0 133.3 0 116.7 0 100C0 83.3 0 66.7 0 50C0 33.3 0 16.7 0 8.3L0 0Z" fill="#9157e7"></path><path d="M382 0L345.7 8.3C309.3 16.7 236.7 33.3 213.7 50C190.7 66.7 217.3 83.3 253.5 100C289.7 116.7 335.3 133.3 356.3 150C377.3 166.7 373.7 183.3 363 200C352.3 216.7 334.7 233.3 325.8 241.7L317 250L0 250L0 241.7C0 233.3 0 216.7 0 200C0 183.3 0 166.7 0 150C0 133.3 0 116.7 0 100C0 83.3 0 66.7 0 50C0 33.3 0 16.7 0 8.3L0 0Z" fill="#8753dc"></path><path d="M316 0L310 8.3C304 16.7 292 33.3 283.3 50C274.7 66.7 269.3 83.3 258.2 100C247 116.7 230 133.3 256 150C282 166.7 351 183.3 382.8 200C414.7 216.7 409.3 233.3 406.7 241.7L404 250L0 250L0 241.7C0 233.3 0 216.7 0 200C0 183.3 0 166.7 0 150C0 133.3 0 116.7 0 100C0 83.3 0 66.7 0 50C0 33.3 0 16.7 0 8.3L0 0Z" fill="#7d4ed2"></path><path d="M225 0L244.5 8.3C264 16.7 303 33.3 324.3 50C345.7 66.7 349.3 83.3 342.2 100C335 116.7 317 133.3 291.8 150C266.7 166.7 234.3 183.3 206.3 200C178.3 216.7 154.7 233.3 142.8 241.7L131 250L0 250L0 241.7C0 233.3 0 216.7 0 200C0 183.3 0 166.7 0 150C0 133.3 0 116.7 0 100C0 83.3 0 66.7 0 50C0 33.3 0 16.7 0 8.3L0 0Z" fill="#734ac7"></path><path d="M116 0L139.2 8.3C162.3 16.7 208.7 33.3 237.3 50C266 66.7 277 83.3 280.5 100C284 116.7 280 133.3 266 150C252 166.7 228 183.3 208.5 200C189 216.7 174 233.3 166.5 241.7L159 250L0 250L0 241.7C0 233.3 0 216.7 0 200C0 183.3 0 166.7 0 150C0 133.3 0 116.7 0 100C0 83.3 0 66.7 0 50C0 33.3 0 16.7 0 8.3L0 0Z" fill="#6945bd"></path><path d="M240 0L231 8.3C222 16.7 204 33.3 183.3 50C162.7 66.7 139.3 83.3 151.5 100C163.7 116.7 211.3 133.3 228.7 150C246 166.7 233 183.3 210.8 200C188.7 216.7 157.3 233.3 141.7 241.7L126 250L0 250L0 241.7C0 233.3 0 216.7 0 200C0 183.3 0 166.7 0 150C0 133.3 0 116.7 0 100C0 83.3 0 66.7 0 50C0 33.3 0 16.7 0 8.3L0 0Z" fill="#6041b2"></path><path d="M79 0L101.3 8.3C123.7 16.7 168.3 33.3 185.7 50C203 66.7 193 83.3 187 100C181 116.7 179 133.3 189 150C199 166.7 221 183.3 233 200C245 216.7 247 233.3 248 241.7L249 250L0 250L0 241.7C0 233.3 0 216.7 0 200C0 183.3 0 166.7 0 150C0 133.3 0 116.7 0 100C0 83.3 0 66.7 0 50C0 33.3 0 16.7 0 8.3L0 0Z" fill="#573ca7"></path><path d="M119 0L133.7 8.3C148.3 16.7 177.7 33.3 175.5 50C173.3 66.7 139.7 83.3 133.8 100C128 116.7 150 133.3 164.3 150C178.7 166.7 185.3 183.3 173.8 200C162.3 216.7 132.7 233.3 117.8 241.7L103 250L0 250L0 241.7C0 233.3 0 216.7 0 200C0 183.3 0 166.7 0 150C0 133.3 0 116.7 0 100C0 83.3 0 66.7 0 50C0 33.3 0 16.7 0 8.3L0 0Z" fill="#4e389d"></path><path d="M59 0L74.2 8.3C89.3 16.7 119.7 33.3 119 50C118.3 66.7 86.7 83.3 84.7 100C82.7 116.7 110.3 133.3 109.5 150C108.7 166.7 79.3 183.3 76 200C72.7 216.7 95.3 233.3 106.7 241.7L118 250L0 250L0 241.7C0 233.3 0 216.7 0 200C0 183.3 0 166.7 0 150C0 133.3 0 116.7 0 100C0 83.3 0 66.7 0 50C0 33.3 0 16.7 0 8.3L0 0Z" fill="#463393"></path><path d="M108 0L103.7 8.3C99.3 16.7 90.7 33.3 82.7 50C74.7 66.7 67.3 83.3 62.3 100C57.3 116.7 54.7 133.3 58.8 150C63 166.7 74 183.3 83.7 200C93.3 216.7 101.7 233.3 105.8 241.7L110 250L0 250L0 241.7C0 233.3 0 216.7 0 200C0 183.3 0 166.7 0 150C0 133.3 0 116.7 0 100C0 83.3 0 66.7 0 50C0 33.3 0 16.7 0 8.3L0 0Z" fill="#3d2f88"></path><path d="M22 0L25.3 8.3C28.7 16.7 35.3 33.3 39 50C42.7 66.7 43.3 83.3 49.8 100C56.3 116.7 68.7 133.3 69.7 150C70.7 166.7 60.3 183.3 58.8 200C57.3 216.7 64.7 233.3 68.3 241.7L72 250L0 250L0 241.7C0 233.3 0 216.7 0 200C0 183.3 0 166.7 0 150C0 133.3 0 116.7 0 100C0 83.3 0 66.7 0 50C0 33.3 0 16.7 0 8.3L0 0Z" fill="#352a7e"></path></svg>